<?xml version="1.0" encoding="utf-8"?><svg viewBox="0 0 140 24" xmlns="http://www.w3.org/2000/svg" xmlns:xlink="http://www.w3.org/1999/xlink"><style>:root>svg{display:none}:root>svg:target{display:block}</style><svg viewBox="0 0 14 14" id="icon-cross" xmlns="http://www.w3.org/2000/svg"><path fill-rule="evenodd" clip-rule="evenodd" d="m8.414 7 5.293-5.293A.999.999 0 1 0 12.293.293L7 5.586 1.707.293A.999.999 0 1 0 .293 1.707L5.586 7 .293 12.293a.999.999 0 1 0 1.414 1.414L7 8.414l5.293 5.293a.997.997 0 0 0 1.414 0 .999.999 0 0 0 0-1.414L8.414 7Z" fill="currentColor"/></svg><svg fill="none" viewBox="0 0 16 22" id="icon-up" xmlns="http://www.w3.org/2000/svg"><path d="M9.031.585a1.444 1.444 0 0 0-.477-.303 1.358 1.358 0 0 0-1.097 0c-.178.069-.34.172-.477.303L1.202 6.363a1.45 1.45 0 0 0 2.051 2.051l3.308-3.322v15.297a1.444 1.444 0 1 0 2.889 0V5.092l3.308 3.322a1.45 1.45 0 0 0 2.05-2.051L9.032.585Z" fill="currentColor"/></svg><svg fill="none" viewBox="0 0 24 24" id="login" xmlns="http://www.w3.org/2000/svg"><path d="M15 3h4a2 2 0 0 1 2 2v14a2 2 0 0 1-2 2h-4m-5-4 5-5-5-5m5 5H3" stroke="#4C5866" stroke-width="2" stroke-linecap="round" stroke-linejoin="round"/></svg><svg fill="none" viewBox="0 0 140 24" id="logo" xmlns="http://www.w3.org/2000/svg"><circle cx="8.5" cy="12" r="8" stroke="#333"/><path d="M25.84 18.58c.747 0 1.36-.12 1.84-.36.493-.253.74-.673.74-1.26 0-.28-.047-.52-.14-.72-.08-.2-.22-.38-.42-.54-.2-.16-.467-.313-.8-.46-.32-.147-.72-.32-1.2-.52a30 30 0 0 1-1.1-.48 5.163 5.163 0 0 1-.92-.58 2.65 2.65 0 0 1-.64-.8c-.16-.307-.24-.68-.24-1.12 0-.84.313-1.52.94-2.04.64-.52 1.513-.78 2.62-.78.707 0 1.287.06 1.74.18.467.12.793.227.98.32l-.3 1.16a7.586 7.586 0 0 0-.82-.32c-.373-.133-.927-.2-1.66-.2a3.45 3.45 0 0 0-.84.1 1.93 1.93 0 0 0-.68.28c-.2.12-.36.28-.48.48-.12.187-.18.42-.18.7 0 .28.053.52.16.72.107.2.26.38.46.54.213.147.467.287.76.42.307.133.653.28 1.04.44.4.16.78.327 1.14.5.373.16.7.36.98.6.28.227.507.507.68.84.173.32.26.727.26 1.22 0 .933-.353 1.64-1.06 2.12-.693.48-1.647.72-2.86.72-.907 0-1.6-.08-2.08-.24-.48-.147-.8-.26-.96-.34l.34-1.18c.04.027.127.073.26.14.133.053.313.12.54.2.227.067.493.127.8.18.32.053.687.08 1.1.08Zm7.735.92h-1.3V9.16h1.3V19.5Zm.3-13.46c0 .307-.094.553-.28.74a.963.963 0 0 1-.68.26.963.963 0 0 1-.68-.26c-.187-.187-.28-.433-.28-.74s.093-.547.28-.72a.926.926 0 0 1 .68-.28c.266 0 .493.093.68.28.186.173.28.413.28.72Zm3.146 3.48a29.02 29.02 0 0 1 1.5-.36c.626-.133 1.433-.2 2.42-.2 1.306 0 2.253.38 2.84 1.14.066-.053.193-.14.38-.26.2-.133.446-.267.74-.4a5.707 5.707 0 0 1 1.02-.34c.4-.093.84-.14 1.32-.14.786 0 1.42.12 1.9.36.493.227.873.553 1.14.98.266.413.446.913.54 1.5.093.587.14 1.227.14 1.92v5.78h-1.3v-5.36c0-.68-.034-1.267-.1-1.76-.054-.507-.174-.92-.36-1.24a1.635 1.635 0 0 0-.76-.74c-.334-.173-.767-.26-1.3-.26-.4 0-.767.04-1.1.12a4.165 4.165 0 0 0-1.44.58 9.664 9.664 0 0 0-.32.24c.12.347.206.74.26 1.18.066.427.1.88.1 1.36v5.88h-1.3v-5.36c0-.68-.034-1.267-.1-1.76-.054-.507-.174-.92-.36-1.24a1.723 1.723 0 0 0-.8-.74c-.334-.173-.78-.26-1.34-.26-.627 0-1.16.033-1.6.1-.427.067-.7.127-.82.18v9.08h-1.3V9.52Zm18.565 8.12c.12.093.267.193.44.3.187.107.4.207.64.3s.5.173.78.24c.28.053.574.08.88.08.64 0 1.174-.107 1.6-.32a2.92 2.92 0 0 0 1.06-.9 3.93 3.93 0 0 0 .58-1.34c.12-.52.18-1.067.18-1.64 0-1.36-.34-2.4-1.02-3.12-.68-.733-1.58-1.1-2.7-1.1-.64 0-1.16.033-1.56.1a5.21 5.21 0 0 0-.88.18v7.22Zm0 5.56h-1.3V9.52c.387-.133.88-.26 1.48-.38s1.36-.18 2.28-.18c.76 0 1.447.127 2.06.38.627.24 1.16.593 1.6 1.06.454.467.8 1.033 1.04 1.7.254.667.38 1.42.38 2.26a7.12 7.12 0 0 1-.32 2.18c-.2.653-.5 1.22-.9 1.7a4.22 4.22 0 0 1-1.48 1.1c-.573.267-1.233.4-1.98.4-.68 0-1.273-.093-1.78-.28-.493-.2-.853-.387-1.08-.56v4.3Zm12.98-3.52a4.234 4.234 0 0 1-1.16-.18 2.114 2.114 0 0 1-.82-.44 2.209 2.209 0 0 1-.5-.8c-.106-.333-.16-.747-.16-1.24V4.22l1.3-.24v13c0 .32.027.58.08.78.067.187.16.34.28.46.12.107.274.187.46.24.2.053.434.1.7.14l-.18 1.08Zm1.858-5.36c0-.907.127-1.693.38-2.36.267-.68.607-1.247 1.02-1.7a4.019 4.019 0 0 1 1.44-1 4.348 4.348 0 0 1 1.68-.34c1.267 0 2.274.413 3.02 1.24.76.827 1.14 2.1 1.14 3.82 0 .107-.006.213-.02.32 0 .107-.006.207-.02.3h-7.26c.04 1.267.354 2.24.94 2.92.587.68 1.52 1.02 2.8 1.02.707 0 1.267-.067 1.68-.2.414-.133.714-.247.9-.34l.24 1.12c-.186.107-.54.233-1.06.38-.506.147-1.106.22-1.8.22-.906 0-1.68-.133-2.32-.4a4.153 4.153 0 0 1-1.58-1.12 4.435 4.435 0 0 1-.9-1.7 8.066 8.066 0 0 1-.28-2.18Zm7.34-.82c-.026-1.08-.28-1.92-.76-2.52-.48-.6-1.16-.9-2.04-.9-.466 0-.886.093-1.26.28-.36.187-.68.44-.96.76-.266.307-.48.667-.64 1.08a4.695 4.695 0 0 0-.26 1.3h5.92Z" fill="#333"/><rect x="86.5" y="4" width="31" height="16" rx="8" stroke="#333"/><circle cx="131.5" cy="12" r="8" stroke="#333"/></svg><svg fill="none" viewBox="0 0 24 24" id="search" xmlns="http://www.w3.org/2000/svg"><path d="M13 19a8 8 0 1 1 0-16 8 8 0 0 1 0 16ZM3 21l4.35-4.35" stroke="#4C5866" stroke-width="2" stroke-linecap="round" stroke-linejoin="round"/></svg></svg>